<svg xmlns:dc="http://purl.org/dc/elements/1.1/" xmlns:cc="http://creativecommons.org/ns#" xmlns:rdf="http://www.w3.org/1999/02/22-rdf-syntax-ns#" xmlns:svg="http://www.w3.org/2000/svg" xmlns="http://www.w3.org/2000/svg" xmlns:sodipodi="http://sodipodi.sourceforge.net/DTD/sodipodi-0.dtd" xmlns:inkscape="http://www.inkscape.org/namespaces/inkscape" viewBox="0 0 100 125" version="1.1" x="0px" y="0px"><g transform="translate(0,-952.36216)"><path d="m 74.701367,957.36329 c -0.170834,-0.002 -0.341993,-10e-4 -0.513438,3.9e-4 -3.291935,0.0414 -6.695957,0.85417 -10.045281,2.46309 -5.22709,2.51093 -10.775769,7.3725 -14.205772,12.44643 -1.382839,2.04559 -2.144716,3.53666 -2.943332,5.76163 -1.276309,3.55587 -1.429758,4.88896 -1.467929,12.74605 -0.03288,6.76636 -0.0733,7.41702 -0.570525,9.16208 -1.236285,4.33884 -2.725382,6.44464 -9.146384,12.93634 l -5.205292,5.2627 1.844065,1.8438 1.843662,1.8436 5.134394,-5.1475 c 2.824021,-2.8311 5.833282,-5.6345 6.687034,-6.2302 2.151249,-1.5011 3.46361,-2.1365 5.831047,-2.8225 2.830326,-0.8202 6.032697,-1.0902 10.166175,-0.8571 9.866422,0.5564 15.905137,-1.6522 22.774907,-8.32992 5.011241,-4.87117 8.0535,-9.71278 9.53071,-15.16811 0.692431,-2.557 0.735691,-7.80346 0.084,-10.16504 -1.049096,-3.80158 -2.841102,-6.90729 -5.561276,-9.63707 -3.961035,-3.97505 -8.941253,-6.04581 -14.236737,-6.10866 z m -0.05113,2.49817 c 3.040535,0.001 3.516338,0.0623 5.253798,0.66829 1.05076,0.36648 2.66272,1.10767 3.582134,1.64703 1.93359,1.13433 5.097143,4.20375 6.422095,6.23105 5.26623,8.05784 2.925902,18.56578 -6.183285,27.7623 -4.126256,4.16577 -7.968178,6.41397 -12.587106,7.36577 -2.642584,0.5445 -7.853531,0.4861 -10.302736,-0.1152 -6.902668,-1.6961 -11.512256,-7.18631 -12.351278,-14.71072 -0.652597,-5.85254 1.012417,-11.94335 4.529902,-16.5726 2.904776,-3.82291 8.406611,-8.332 12.517334,-10.25834 3.427827,-1.60634 5.295065,-2.01935 9.119142,-2.01718 z m 0.992184,2.14294 -0.137688,1.55226 -0.138069,1.55226 -2.264579,0.0694 c -2.592814,0.0795 -2.841998,-0.0687 -2.908616,-1.72725 -0.03456,-0.86059 -0.05464,-0.82174 -0.179107,0.3444 l -0.140305,1.31346 -2.264577,0.0694 c -1.949676,0.0598 -2.308806,0.01 -2.581009,-0.35821 -0.300232,-0.40603 -0.32845,-0.40653 -0.55337,-0.01 -0.130294,0.22985 -0.473319,0.42869 -0.762317,0.44179 -0.485068,0.022 -0.479489,0.0362 0.07164,0.18954 0.590375,0.16423 0.597023,0.19547 0.597023,2.7825 l 0,2.61609 -2.388091,0 -2.388089,0 -0.138815,-1.43286 c -0.121219,-1.24985 -0.144087,-1.30125 -0.179107,-0.40224 -0.06394,1.64151 -0.339376,1.94919 -1.779872,1.98809 l -1.245532,0.0335 1.239189,0.15074 c 0.681504,0.0829 1.307833,0.21939 1.391818,0.30336 0.29448,0.2945 0.391913,4.21535 0.117535,4.72806 -0.246909,0.46133 -0.44174,0.49401 -2.5825,0.43096 l -2.31532,-0.0683 -0.143285,-1.07463 c -0.09267,-0.69537 -0.155894,-0.83736 -0.179106,-0.40225 -0.04864,0.91203 -0.444261,1.59215 -0.939571,1.61494 -0.327703,0.0151 -0.338133,0.0446 -0.05148,0.14702 0.728673,0.26043 0.955236,0.88694 0.955236,2.64182 0,2.42151 -0.172192,2.67455 -1.858985,2.72915 l -1.364936,0.0444 1.313449,0.0847 c 1.694283,0.10944 1.910472,0.40754 1.910472,2.63435 0,2.48905 -0.142579,2.67491 -2.097793,2.73101 l -1.603747,0.0459 1.552259,0.0821 c 1.09342,0.0576 1.640484,0.19873 1.850769,0.47726 0.343408,0.45486 0.406321,3.82397 0.08097,4.33774 -0.115645,0.18263 -0.624381,0.41192 -1.130599,0.50971 l -0.920542,0.17799 0.887319,0.0272 c 1.101999,0.0341 1.366293,0.46897 1.424276,2.34034 0.04239,1.36868 0.045,1.3628 0.179107,-0.40225 l 0.136197,-1.79106 2.31532,-0.0683 c 2.16296,-0.0637 2.333909,-0.0342 2.591461,0.44702 0.305694,0.57118 0.233001,4.11312 -0.09106,4.43812 -0.108645,0.10898 -0.91437,0.26171 -1.790322,0.33956 l -1.59255,0.14142 1.603745,0.0377 c 1.713961,0.0402 2.056298,0.28358 2.131743,1.51449 0.01872,0.3042 0.09923,0.1231 0.179107,-0.40213 l 0.145158,-0.95527 2.388089,0 2.388091,0 0.104486,1.5522 c 0.06706,0.9971 0.13186,1.2533 0.181342,0.7165 0.04238,-0.4598 0.135547,-1.1888 0.206713,-1.62016 l 0.129492,-0.78436 2.43547,0.0679 2.435488,0.0679 0.138795,1.43282 c 0.133524,1.3766 0.140535,1.3889 0.179107,0.3179 0.06817,-1.89272 0.03584,-1.87013 2.700414,-1.87013 2.234755,0 2.381518,0.0303 2.56756,0.53323 l 0.19739,0.5336 0.169038,-0.5336 c 0.0931,-0.29338 0.350266,-0.53903 0.57127,-0.54591 0.323194,-0.01 0.296734,-0.0859 -0.135434,-0.38732 -0.487323,-0.33992 -0.5369,-0.56644 -0.533595,-2.43512 0.0019,-1.13324 0.09153,-2.1991 0.198881,-2.36831 0.142903,-0.22521 0.829642,-0.28918 2.563471,-0.23879 l 2.368316,0.069 0.138797,1.43287 c 0.133522,1.37661 0.140533,1.38897 0.179107,0.3179 0.0633,-1.7576 0.15725,-1.86489 1.677642,-1.91345 l 1.34778,-0.0429 -1.188084,-0.0918 c -0.653401,-0.0504 -1.325026,-0.20538 -1.492557,-0.3444 -0.317424,-0.26345 -0.442369,-3.85597 -0.159696,-4.5926 0.118487,-0.30879 0.571022,-0.37762 2.478379,-0.37762 2.474268,0 2.733085,0.10542 2.933242,1.19405 0.0918,0.49953 0.115319,0.46908 0.142538,-0.18658 0.0201,-0.4839 0.182358,-0.84114 0.424265,-0.93396 0.361095,-0.13857 0.360445,-0.17319 -0.009,-0.44328 -0.337016,-0.24644 -0.389855,-0.66731 -0.332106,-2.64818 l 0.0687,-2.35525 1.432851,-0.13209 1.432861,-0.13209 -1.432861,-0.10672 -1.432851,-0.10673 0,-2.5075 0,-2.50749 1.671668,-0.10815 1.671658,-0.10779 -1.671658,-0.13097 -1.671668,-0.13061 -0.0683,-2.48808 c -0.0745,-2.70684 -0.0134,-2.84849 1.262343,-2.91534 0.611542,-0.0321 0.576583,-0.0588 -0.238806,-0.18283 l -0.955238,-0.14515 -0.136938,-1.67167 -0.136948,-1.67167 -0.0422,1.4448 c -0.0232,0.79464 -0.171128,1.57375 -0.328736,1.73136 -0.183488,0.18347 -1.119194,0.28658 -2.601166,0.28658 -1.89047,0 -2.341341,-0.0695 -2.459733,-0.37799 -0.270179,-0.70409 -0.158188,-4.52842 0.141431,-4.82804 0.157614,-0.15762 0.936724,-0.3069 1.731366,-0.33173 l 1.444794,-0.0452 -1.424657,-0.0877 c -1.624875,-0.10007 -2.024948,-0.33707 -2.069423,-1.22464 -0.0256,-0.51121 -0.05881,-0.47236 -0.179107,0.20859 l -0.147756,0.83583 -2.232864,0.069 c -1.441222,0.0446 -2.351525,-0.0296 -2.567197,-0.20857 -0.202853,-0.16835 -0.350361,-0.80552 -0.375388,-1.62129 l -0.04179,-1.34367 z m -9.209831,3.4922 c 0.310777,-0.002 0.695642,0.006 1.176508,0.0206 l 2.264959,0.0694 0,2.62689 0,2.62691 -2.31532,0.0683 c -2.09787,0.0618 -2.339087,0.024 -2.567197,-0.40225 -0.358347,-0.66961 -0.320825,-4.13756 0.05037,-4.6452 0.192632,-0.26343 0.458379,-0.35837 1.390689,-0.36456 z m 5.492608,0 c 0.310776,-0.002 0.69564,0.006 1.176506,0.0206 l 2.26496,0.0694 0,2.62689 0,2.62691 -2.272793,0.0675 c -1.563645,0.0466 -2.364533,-0.0242 -2.567196,-0.22687 -0.403282,-0.40329 -0.396997,-4.26616 0.0078,-4.81983 0.192632,-0.26343 0.458378,-0.35838 1.390689,-0.36457 z m 5.722092,0.01 c 0.291385,-0.004 0.618439,3.8e-4 0.978735,0.0119 l 2.233246,0.0691 0,2.6269 0,2.6269 -2.419059,0.0675 c -2.047529,0.0573 -2.441908,0.008 -2.567197,-0.31792 -0.08142,-0.21218 -0.148138,-1.33094 -0.148138,-2.48622 0,-1.50859 0.09396,-2.17884 0.333951,-2.37801 0.16176,-0.13425 0.714305,-0.20939 1.588462,-0.21978 z m 0.742925,5.68104 c 1.079016,0.0107 2.149548,0.12878 2.329133,0.34516 0.180081,0.21699 0.253214,1.15688 0.208585,2.68659 l -0.06867,2.35301 -2.272793,0.0675 c -1.563645,0.0466 -2.364553,-0.0242 -2.567198,-0.22687 -0.39623,-0.39624 -0.402726,-4.53234 -0.0078,-4.92729 0.212444,-0.21245 1.299731,-0.30896 2.378767,-0.29815 z m -5.552308,0.0119 0,0 c 1.516914,0 2.189496,0.0939 2.388472,0.3336 0.18008,0.21698 0.253213,1.15687 0.208584,2.68659 l -0.06867,2.35301 -2.315701,0.0683 c -2.09789,0.0618 -2.339107,0.024 -2.567198,-0.40224 -0.324092,-0.60559 -0.327778,-3.97395 -0.0048,-4.5773 0.215789,-0.40323 0.515694,-0.46195 2.358995,-0.46195 z m 11.165064,0 c 2.653547,0 2.707116,0.0542 2.707116,2.74631 0,2.69213 -0.0536,2.7463 -2.707116,2.7463 -1.402438,0 -2.317268,-0.10494 -2.498916,-0.28656 -0.180902,-0.18091 -0.286571,-1.08792 -0.286571,-2.45974 0,-1.37183 0.105664,-2.27884 0.286571,-2.45974 0.181648,-0.18164 1.096478,-0.28657 2.498916,-0.28657 z m -16.688278,0.004 0,0 c 1.14466,0.002 2.219433,0.0913 2.388454,0.1985 0.225989,0.14339 0.289187,0.85326 0.238808,2.68288 l -0.06828,2.48809 -2.315702,0.0683 c -2.097871,0.0618 -2.339106,0.024 -2.567198,-0.40223 -0.324092,-0.60559 -0.327778,-3.97395 -0.0048,-4.5773 0.215637,-0.40293 0.51304,-0.46141 2.328389,-0.45821 z m -5.201927,0.005 c 0.972486,0.0128 1.919794,0.0808 2.098156,0.19404 0.22599,0.14338 0.289188,0.85324 0.23881,2.68287 l -0.06829,2.48808 -2.280627,0.0675 c -1.2543,0.0373 -2.355802,-0.007 -2.447792,-0.0992 -0.09201,-0.092 -0.167166,-1.26617 -0.167166,-2.60935 0,-2.00662 0.06726,-2.46825 0.377625,-2.58736 0.279195,-0.10708 1.276787,-0.14939 2.249275,-0.13656 z m 21.890205,5.72321 c 2.638977,0 2.707116,0.066 2.707116,2.6269 0,2.56094 -0.0681,2.6269 -2.707116,2.6269 -1.402438,0 -2.317268,-0.10494 -2.498916,-0.28658 -0.178456,-0.17846 -0.286571,-1.06137 -0.286571,-2.34032 0,-1.27896 0.108112,-2.16187 0.286571,-2.34034 0.181648,-0.18163 1.096478,-0.28656 2.498916,-0.28656 z m -17.570381,0.0295 c 0.310777,-0.002 0.695642,0.006 1.176508,0.0206 l 2.264959,0.0694 0,2.50749 0,2.50749 -2.31532,0.0683 c -2.09787,0.0618 -2.339087,0.024 -2.567197,-0.40225 -0.356494,-0.66613 -0.319602,-3.90043 0.05037,-4.40639 0.192632,-0.26343 0.458379,-0.35837 1.390689,-0.36456 z m 5.492608,0 c 0.310776,-0.002 0.69564,0.006 1.176506,0.0206 l 2.26496,0.0694 0,2.50749 0,2.50749 -2.31532,0.0683 c -2.09787,0.0618 -2.339087,0.024 -2.567197,-0.40225 -0.356494,-0.66613 -0.319603,-3.90043 0.05037,-4.40639 0.192632,-0.26343 0.458378,-0.35837 1.390689,-0.36456 z m -14.577799,7.6e-4 c 1.831722,-0.015 1.842574,0.28455 1.842574,2.59667 0,2.60719 -0.02031,2.6269 -2.68922,2.6269 -1.67575,0 -2.316141,-0.0843 -2.405245,-0.31642 -0.06677,-0.17403 -0.09033,-1.32928 -0.05226,-2.56719 l 0.06941,-2.25077 2.332858,-0.0687 c 0.341267,-0.01 0.640218,-0.0184 0.901876,-0.0206 z m 20.299891,0.008 c 0.291385,-0.004 0.618439,3.9e-4 0.978735,0.0119 l 2.233246,0.0691 0.06867,2.36831 c 0.05038,1.73383 -0.01356,2.42057 -0.238809,2.56347 -0.492424,0.31242 -4.350527,0.24319 -4.677676,-0.084 -0.425195,-0.4252 -0.385743,-4.34918 0.04738,-4.70865 0.161759,-0.13424 0.714305,-0.20938 1.588462,-0.21977 z m -18.042019,0.0806 2.388089,0 2.38809,0 0,2.50749 0,2.50749 -2.332494,0.0683 c -1.795845,0.0526 -2.36144,-0.006 -2.457498,-0.25672 -0.06862,-0.17882 -0.09367,-1.33785 -0.0556,-2.57578 l 0.06941,-2.25077 z m -0.830616,5.35568 0.256347,0.66567 c 0.369504,0.95914 0.17838,4.09356 -0.266779,4.37505 -0.434173,0.27454 -4.057499,0.29716 -4.481776,0.0281 -0.225226,-0.1429 -0.289207,-0.82964 -0.238808,-2.56347 l 0.06902,-2.36831 2.331005,-0.0683 2.330987,-0.0687 z m 25.228316,0.0176 c 2.638977,0 2.707116,0.066 2.707116,2.6269 0,2.56095 -0.0681,2.62691 -2.707116,2.62691 -1.402438,0 -2.317268,-0.10494 -2.498916,-0.28657 -0.178456,-0.17847 -0.286571,-1.06138 -0.286571,-2.34034 0,-1.27895 0.108112,-2.16187 0.286571,-2.34032 0.181648,-0.18166 1.096478,-0.28658 2.498916,-0.28658 z m -17.570381,0.0295 c 0.310777,-0.002 0.695642,0.006 1.176508,0.0206 l 2.264959,0.0694 0.06867,2.36832 c 0.05038,1.73382 -0.01356,2.42056 -0.238808,2.56346 -0.169211,0.10732 -1.250482,0.19688 -2.403011,0.19889 -2.031118,0.004 -2.102646,-0.0152 -2.328407,-0.60897 -0.336492,-0.88511 -0.289628,-3.75606 0.06941,-4.24707 0.192632,-0.26343 0.458379,-0.35838 1.39069,-0.36456 z m 5.492608,0 c 0.310776,-0.002 0.69564,0.006 1.176506,0.0206 l 2.26496,0.0694 0.06867,2.36832 c 0.05038,1.73382 -0.01356,2.42056 -0.23881,2.56346 -0.169208,0.10732 -1.244194,0.19688 -2.388834,0.19889 -1.815369,0.004 -2.112752,-0.0553 -2.328388,-0.45822 -0.352959,-0.65952 -0.312323,-3.89518 0.05521,-4.39782 0.192632,-0.26343 0.458378,-0.35838 1.39069,-0.36456 z m 5.722092,0.01 c 0.291385,-0.004 0.618439,3.8e-4 0.978735,0.0119 l 2.233246,0.0691 0.06903,2.23286 c 0.04452,1.44121 -0.02959,2.35152 -0.208585,2.5672 -0.359456,0.43312 -4.283069,0.47296 -4.708263,0.0478 -0.425195,-0.4252 -0.385743,-4.34918 0.04738,-4.70865 0.16176,-0.13425 0.714306,-0.20939 1.588462,-0.21978 z m -18.042019,0.0806 2.388089,0 2.38809,0 0.06867,2.36831 c 0.05038,1.73384 -0.01356,2.42058 -0.238809,2.56348 -0.169211,0.10732 -1.167185,0.19514 -2.217944,0.19514 -1.05076,0 -2.049095,-0.0878 -2.218306,-0.19514 -0.225226,-0.1429 -0.289207,-0.82964 -0.23881,-2.56348 l 0.06902,-2.36831 z m -1.895914,5.3997 c 0.972562,0.004 1.116556,0.11064 1.309704,0.47165 0.402174,0.75147 0.208394,4.2322 -0.251858,4.52319 -0.436428,0.27593 -4.058911,0.30004 -4.484756,0.0298 -0.225226,-0.14289 -0.289207,-0.82964 -0.238808,-2.56346 l 0.06902,-2.36833 2.31532,-0.0683 c 0.540741,-0.0159 0.957185,-0.0259 1.281373,-0.0246 z m 8.568007,0 c 0.324189,-10e-4 0.740633,0.008 1.281373,0.0246 l 2.31532,0.0683 0.06867,2.36833 c 0.05038,1.73382 -0.01356,2.42056 -0.238808,2.56345 -0.425864,0.2702 -4.047946,0.24608 -4.484394,-0.0298 -0.460252,-0.29098 -0.654414,-3.77172 -0.25224,-4.52318 0.193187,-0.36095 0.337523,-0.46769 1.310087,-0.47166 z m 5.877319,0.0124 c 0.291386,-0.004 0.618439,3.8e-4 0.978734,0.0119 l 2.233247,0.0691 0.06902,2.23286 c 0.04452,1.44121 -0.02959,2.35154 -0.208586,2.5672 -0.413616,0.49839 -4.112901,0.46554 -4.619463,-0.041 -0.506581,-0.50659 -0.539804,-4.20622 -0.04142,-4.61983 0.16176,-0.13425 0.714307,-0.20941 1.588462,-0.2198 z m 5.492607,0 c 0.291385,-0.004 0.618439,3.8e-4 0.978735,0.0119 l 2.233246,0.0691 0.06903,2.23286 c 0.04452,1.44121 -0.02959,2.35154 -0.208585,2.5672 -0.413618,0.49839 -4.112902,0.46554 -4.619464,-0.041 -0.506582,-0.50659 -0.539804,-4.20622 -0.04142,-4.61983 0.16176,-0.13425 0.714306,-0.20941 1.588462,-0.2198 z m -18.042019,0.0806 2.388089,0 2.38809,0 0.06867,2.36831 c 0.05038,1.73383 -0.01356,2.42057 -0.238809,2.56346 -0.169211,0.10732 -1.167185,0.19516 -2.217944,0.19516 -1.05076,0 -2.049095,-0.0878 -2.218306,-0.19516 -0.225226,-0.14289 -0.289207,-0.82963 -0.23881,-2.56346 l 0.06902,-2.36831 z m 7.101205,5.40455 c 0.263816,5.7e-4 0.562901,0.008 0.902622,0.0187 l 2.264959,0.0694 0.06867,2.36832 c 0.05038,1.73382 -0.01356,2.42056 -0.238808,2.56346 -0.169211,0.10732 -1.189842,0.19688 -2.268323,0.19889 -1.712337,0.004 -2.022597,-0.0626 -2.447792,-0.51904 -0.382877,-0.41098 -0.486941,-0.44178 -0.486941,-0.14478 0,0.20773 -0.16986,0.44267 -0.377624,0.52239 -0.55866,0.21438 -3.991186,0.16904 -4.348177,-0.0575 -0.225226,-0.1429 -0.289207,-0.82964 -0.23881,-2.56346 l 0.06902,-2.36832 2.38809,0 2.38809,0 0.13507,1.91048 0.135452,1.91047 0.04365,-1.56644 c 0.05634,-2.01484 0.164129,-2.34685 2.010849,-2.34256 z m 5.448207,0.007 c 0.291386,-0.004 0.618439,3.9e-4 0.978734,0.0119 l 2.233247,0.069 0.06867,2.36831 c 0.05038,1.73383 -0.01356,2.42057 -0.23881,2.56347 -0.169208,0.10732 -1.186288,0.19688 -2.260488,0.19889 -1.460843,0.002 -2.047721,-0.0909 -2.328388,-0.37165 -0.506581,-0.50658 -0.539804,-4.20621 -0.04142,-4.61983 0.16176,-0.13425 0.714307,-0.2094 1.588462,-0.21979 z m -43.917718,26.39516 -6.353064,6.0441 9.038175,0 1.339564,-1.6621 -4.024675,-4.382 z m -9.456092,8.9097 -3.235861,3.3968 9.182206,0.1854 3.235861,-3.3967 -9.182206,-0.1855 z m -6.472468,6.448 -3.3179549,3.3432 9.7911679,0 3.317955,-3.3432 -9.791168,0 z m -6.0343967,6.2089 c -0.3891828,0.5558 -1.2065969,1.1871 -1.2365915,1.893 0,1.0415 2.6462328,3.7158 4.0157155,4.0583 0.041449,0.012 0.3101279,-0.1058 0.5970241,-0.2583 0.6701736,-0.3559 5.8948556,-5.2221 5.8948556,-5.4904 L 6.2740083,1041.41 Z" style="" fill="#000000" stroke="none"/></g><text x="0" y="115" fill="#000000" font-size="5px" font-weight="bold" font-family="'Helvetica Neue', Helvetica, Arial-Unicode, Arial, Sans-serif">Created by anbileru adaleru</text><text x="0" y="120" fill="#000000" font-size="5px" font-weight="bold" font-family="'Helvetica Neue', Helvetica, Arial-Unicode, Arial, Sans-serif">from the Noun Project</text></svg>